<svg width="125" height="125" viewBox="0 0 125 125" fill="none" xmlns="http://www.w3.org/2000/svg">
<path d="M88.8235 75.0883C88.8235 82.7843 86.5414 90.3075 82.2657 96.7065C77.99 103.106 71.9128 108.093 64.8027 111.038C57.6925 113.983 49.8686 114.754 42.3205 113.252C34.7723 111.751 27.8389 108.045 22.397 102.603C16.9551 97.1611 13.2491 90.2277 11.7477 82.6796C10.2463 75.1314 11.0168 67.3076 13.962 60.1974C16.9071 53.0872 21.8945 47.01 28.2935 42.7343C34.6926 38.4586 42.2157 36.1765 49.9118 36.1765L49.9118 75.0883H88.8235Z" fill="url(#paint0_linear_181512_10750)"/>
<circle cx="86.0587" cy="39.6471" r="29.6471" fill="url(#paint1_linear_181512_10750)"/>
<circle cx="31.353" cy="66" r="5" fill="white"/>
<defs>
<linearGradient id="paint0_linear_181512_10750" x1="49.9118" y1="36.1765" x2="49.9118" y2="114" gradientUnits="userSpaceOnUse">
<stop offset="0.350962" stop-color="#F4A6A5"/>
<stop offset="1" stop-color="#DC98C8"/>
</linearGradient>
<linearGradient id="paint1_linear_181512_10750" x1="86.0587" y1="10" x2="86.0587" y2="69.2941" gradientUnits="userSpaceOnUse">
<stop offset="0.110577" stop-color="#D193D9"/>
<stop offset="0.649038" stop-color="#B77EFE"/>
<stop offset="1" stop-color="#A586FE"/>
</linearGradient>
</defs>
</svg>
